<?xml version="1.0" standalone="no"?>
<!DOCTYPE svg PUBLIC "-//W3C//DTD SVG 20010904//EN"
 "http://www.w3.org/TR/2001/REC-SVG-20010904/DTD/svg10.dtd">
<svg version="1.0" xmlns="http://www.w3.org/2000/svg"
 width="184.000000pt" height="184.000000pt" viewBox="0 0 184.000000 184.000000"
 preserveAspectRatio="xMidYMid meet">

<g transform="translate(0.000000,184.000000) scale(0.100000,-0.100000)"
fill="#000000" stroke="none">
<path d="M810 993 c-33 -36 -60 -69 -60 -72 1 -3 28 -35 60 -71 l60 -64 -1 -256 c-2 -270 -3
-268 -34 43 l-18 178 -73 82 c-40 45 -74 85 -74 88 0 3 28 37 61 75 34 38 67
78 74 89 8 12 23 117 37 255 l23 235 3 -258 2 -259 -60 -65z m196 268 l18
-164 50 -60 c28 -32 62 -72 75 -88 l24 -29 -59 -66 c-33 -36 -66 -76 -75 -87
-12 -16 -22 -80 -38 -242 -12 -121 -23 -227 -25 -235 -2 -8 -4 100 -5 240 l-1
256 60 64 c32 36 59 68 60 71 0 3 -27 36 -60 72 l-60 65 1 259 c2 275 0 277
35 -56z m-292 -74 c-18 -30 -87 -108 -94 -105 -4 2 -28 28 -53 58 l-45 56 50
62 49 61 50 -59 c30 -36 47 -65 43 -73z m564 58 l40 -49 -45 -56 c-25 -30 -49
-56 -53 -58 -7 -3 -76 75 -94 105 -4 7 14 38 41 72 53 67 46 67 111 -14z"/>
</g>
</svg>
