<svg fill="#ff0000" version="1.1" id="Layer_1" xmlns="http://www.w3.org/2000/svg" xmlns:xlink="http://www.w3.org/1999/xlink" viewBox="0 0 496 496" xml:space="preserve" stroke="#ff0000"><g id="SVGRepo_bgCarrier" stroke-width="0"></g><g id="SVGRepo_tracerCarrier" stroke-linecap="round" stroke-linejoin="round"></g><g id="SVGRepo_iconCarrier"> <g> <g> <g> <rect x="240" width="16" height="48"></rect> <rect x="119.997" y="43.858" transform="matrix(0.5 0.866 -0.866 0.5 116.9066 -98.7747)" width="47.999" height="16"></rect> <rect x="43.861" y="120.006" transform="matrix(0.866 0.5 -0.5 0.866 73.0962 -16.7804)" width="47.999" height="16"></rect> <rect x="16" y="224" width="48" height="16"></rect> <rect x="59.855" y="312.014" transform="matrix(-0.4999 -0.8661 0.8661 -0.4999 -189.2415 562.7538)" width="16" height="48.001"></rect> <rect x="404.145" y="327.966" transform="matrix(-0.866 -0.5 0.5 -0.866 630.9384 840.9946)" width="47.999" height="16"></rect> <rect x="432" y="224" width="48" height="16"></rect> <rect x="420.168" y="104.001" transform="matrix(0.4999 0.8661 -0.8661 0.4999 324.9917 -306.8173)" width="16" height="48.001"></rect> <rect x="343.972" y="27.85" transform="matrix(0.8661 0.4999 -0.4999 0.8661 73.0531 -169.0051)" width="16" height="48.001"></rect> <path d="M416,232c0-92.64-75.36-168-168-168S80,139.36,80,232c0,58.088,30.536,112.44,80,142.96V384h-16v16h16v16h-16v16h16v16 h-16v16h16v32h176v-32h16v-16h-16v-16h16v-16h-16v-16h16v-16h-16v-9.04C385.464,344.44,416,290.088,416,232z M320,480H176v-16 h144V480z M320,448H176v-16h144V448z M320,416H176v-16h144V416z M163.968,266.968l33.712-16.864L211.608,272H220l28,37.336 L276,272h8.392l13.936-21.896l33.712,16.856L288,341.824V384h-80v-42.176L163.968,266.968z M155.832,253.136l-25.464-43.296 c-1.544-2.624-2.368-5.632-2.368-8.688c0-9.456,7.696-17.152,17.152-17.152h1.04c5.896,0,11.304,2.968,14.472,7.944 l28.376,44.592L155.832,253.136z M240,272h16l-8,10.664L240,272z M306.96,236.536l28.376-44.592 c3.168-4.976,8.576-7.944,14.472-7.944h1.04c9.456,0,17.152,7.696,17.152,17.152c0,3.056-0.824,6.064-2.368,8.696l-25.464,43.288 L306.96,236.536z M323.992,363.504L320,365.816V384h-16v-37.824l75.424-128.216c2.992-5.088,4.576-10.904,4.576-16.808 c0-18.28-14.872-33.152-33.152-33.152h-1.04c-11.392,0-21.848,5.736-27.968,15.352L275.608,256H248h-27.608l-46.224-72.648 C168.04,173.736,157.592,168,146.192,168h-1.04C126.872,168,112,182.872,112,201.152c0,5.904,1.584,11.72,4.576,16.808 L192,346.176V384h-16v-18.184l-3.992-2.312C125.128,336.336,96,285.952,96,232c0-83.816,68.184-152,152-152s152,68.184,152,152 C400,285.952,370.872,336.336,323.992,363.504z"></path> <path d="M296,208c0-26.472-21.528-48-48-48s-48,21.528-48,48s21.528,48,48,48S296,234.472,296,208z M248,240 c-17.648,0-32-14.352-32-32s14.352-32,32-32s32,14.352,32,32S265.648,240,248,240z"></path> </g> </g> </g> </g></svg>